<svg width="16" height="16" viewBox="0 0 16 16" fill="none" xmlns="http://www.w3.org/2000/svg">
<path fill-rule="evenodd" clip-rule="evenodd" d="M1.36058e-05 7.99964C1.37234e-05 6.65372 0.904294 5.59975 2.39991 5.59975L4.85821 5.59975L4.83596 5.53917C4.81373 5.47904 4.75107 5.31391 4.69022 5.15352L4.69022 5.15351C4.63635 5.01155 4.5839 4.8733 4.56215 4.81491C4.41004 4.40665 4.29905 4.0777 4.20925 3.75193C4.07351 3.25956 3.99983 2.81596 3.99983 2.39989C3.99983 1.22234 4.72631 0.490952 5.80113 0.17798C6.28591 0.0368201 6.70788 -7.41612e-05 7.19969 -6.59876e-07L7.58328 -6.26341e-07L7.82345 0.299094C8.09474 0.636952 8.6276 1.24585 9.24193 1.94784L9.242 1.94792C10.3753 3.24299 11.786 4.8549 12.3432 5.66646C12.4878 5.62352 12.6409 5.60046 12.7994 5.60046L14.3994 5.60046C15.283 5.60046 15.9993 6.31678 15.9993 7.20039L15.9993 14.4001C15.9993 15.2837 15.283 16 14.3994 16L12.7994 16C12.2498 16 11.7648 15.7228 11.4768 15.3006C11.2341 15.4575 10.9633 15.5885 10.669 15.6938C9.99521 15.9349 9.32692 16.009 8.7721 15.9988L3.19987 15.9993C0.995855 15.9993 1.31901e-05 12.7543 1.36058e-05 7.99964ZM10.1301 14.1874C10.838 13.9342 11.1995 13.5212 11.1995 12.7994L11.1995 7.20039L11.1995 7.19968C11.1995 7.00753 11.164 6.83738 11.0861 6.65569C10.9464 6.32932 9.67805 4.88231 8.47592 3.5108L8.4759 3.51078C7.85546 2.80293 7.25266 2.1152 6.83174 1.61203C6.6306 1.62712 6.44103 1.65803 6.24843 1.71411C5.79001 1.84759 5.59976 2.03913 5.59976 2.39989C5.59976 2.65315 5.65101 2.96172 5.75164 3.32674C5.82683 3.5995 5.92422 3.88812 6.0614 4.25634C6.08088 4.3086 6.12946 4.43665 6.18112 4.5728L6.18123 4.57309L6.18198 4.57506C6.24468 4.74033 6.3117 4.91698 6.33656 4.98421C6.44059 5.2655 6.50912 5.47261 6.556 5.66079C6.75528 6.46079 6.55536 7.19968 5.59976 7.19968L2.39991 7.19968C1.84695 7.19968 1.59994 7.48758 1.59994 7.99964C1.59994 11.8321 2.38781 14.3994 3.19987 14.3994L8.79962 14.3994L8.82917 14.3998C9.1793 14.4061 9.67108 14.3516 10.1301 14.1874ZM14.3994 14.4001L14.3994 7.20039L12.7994 7.20039L12.7994 14.4001L14.3994 14.4001Z" fill="#459221"/>
</svg>
